<svg width="100" height="139" viewBox="0 0 139 139" fill="none" xmlns="http://www.w3.org/2000/svg">
<g filter="url(#filter0_d_601_457)">
<circle cx="69.5" cy="65.5" r="62.5" fill="#BF2C2C"/>
</g>
<path d="M108.022 42.092C107.909 38.8676 107.979 35.6361 108.013 32.4084C108.027 31.1377 107.481 30.3552 106.3 29.9567C101.576 28.3624 96.8551 26.7624 92.1361 25.1568C91.5644 24.9477 90.9373 24.9477 90.3656 25.1568C85.6497 26.7707 80.9287 28.3694 76.2027 29.9528C75.025 30.35 74.4525 31.1214 74.4794 32.3966C74.5212 34.3595 74.4905 36.3224 74.4905 38.2853C74.4905 39.8995 74.5095 41.5143 74.4866 43.1271C74.4341 46.1437 75.1748 49.121 76.6345 51.7613C79.7292 57.4151 84.5996 61.1034 90.2937 63.8358C91.1095 64.2284 91.8999 64.0196 92.6719 63.6395C95.9747 62.0096 99.0039 59.9819 101.619 57.3798C105.85 53.17 108.236 48.196 108.022 42.092ZM96.224 43.964C96.9064 44.4979 97.4527 45.2019 98.0867 45.8019C98.7206 46.4019 98.9732 47.1347 98.9536 48.1731C98.9706 49.1029 98.4203 49.9338 97.4612 50.3853C96.4471 50.8629 95.3675 50.8165 94.4777 50.0425C93.4028 49.1062 92.4593 47.4305 91.3274 47.3094C90.1412 47.1832 89.3123 49.0885 88.2046 49.9672C86.9719 50.9454 85.3016 50.8721 84.3025 49.8364C83.2393 48.7325 83.2452 47.2656 84.3195 45.9557C85.2146 44.8637 87.0806 44.0687 86.9648 42.8203C86.866 41.7597 85.1819 40.8796 84.2783 39.8504C83.189 38.6072 83.2315 37.0369 84.3725 36.0051C85.5437 34.9471 86.8267 34.8823 88.0979 35.8566C89.2619 36.749 90.0686 38.7132 91.3536 38.6046C92.4698 38.5084 93.4021 36.7667 94.5006 35.8533C95.7437 34.8188 97.0673 34.9425 98.1848 36.0712C99.2467 37.1442 99.2715 38.4528 98.4315 39.6423C97.8276 40.4975 97.0477 41.2558 96.2423 41.9324C95.3656 42.6665 95.2733 43.2207 96.224 43.964Z" fill="white"/>
<path d="M105.561 75.0603C105.457 71.1129 104.084 67.6903 101.788 64.8434C101.231 64.1525 100.812 64.0582 100.101 64.5706C98.7815 65.5232 97.3846 66.3149 96.012 67.1537C93.0102 68.9858 90.0333 68.9112 86.9831 67.191C83.8751 65.448 80.9869 63.3393 78.3801 60.9097C77.595 60.1776 76.8282 59.8256 75.8285 59.8354C70.4288 59.8903 65.0291 59.8616 59.6288 59.8616H43.6372C45.3481 55.0492 46.9661 50.5973 48.5115 46.1081C49.3064 43.7978 50.5665 42.6665 52.687 42.7248C56.5976 42.8321 60.5121 42.6966 64.4226 42.7902C64.5916 42.7955 64.7608 42.7894 64.929 42.7719C64.929 42.7719 68.9717 43.3346 69.4893 41.1597V35.568C69.4893 35.568 69.1739 33.944 67.2091 33.98C65.5499 34.0095 63.4275 33.9898 62.8079 33.98C62.751 33.98 62.6921 33.9761 62.6299 33.98C59.1054 34.0736 55.5743 33.8917 52.0524 34.0513C47.483 34.2587 44.1174 36.9047 42.2383 42.0829C40.0662 48.0772 37.9289 54.0893 35.8265 60.1193C35.447 61.2016 34.919 61.9789 34.096 62.643C30.1514 65.8288 28.0604 70.3304 28.0198 76.1465C27.9838 81.3285 28.0067 86.5106 28.0132 91.6927C28.0217 98.1349 31.7295 102.952 36.7058 103C41.728 103.048 45.5385 98.411 45.5725 91.9891C45.581 90.3448 45.988 90.0399 47.2324 90.0451C60.1803 90.0988 73.1287 90.0955 86.0776 90.0353C87.5425 90.0268 87.935 90.4279 87.975 92.2802C88.094 98.2775 91.8502 102.875 96.4805 102.997C101.331 103.128 105.288 98.9567 105.56 92.82C105.818 86.9156 105.717 80.9759 105.561 75.0603ZM49.0617 81.4725C46.758 81.57 44.4465 81.5817 42.1441 81.464C40.0132 81.3547 38.5751 79.4788 38.5954 77.1116C38.6157 74.7443 40.0714 72.9783 42.2141 72.8298C43.363 72.75 44.5198 72.8154 45.6726 72.8148C46.7711 72.8148 47.8709 72.7624 48.9668 72.8239C51.1599 72.9482 52.7407 74.8254 52.7138 77.1973C52.6877 79.5037 51.1613 81.3835 49.0617 81.4725ZM91.4249 81.4725C89.1219 81.5791 86.8104 81.5785 84.508 81.4725C82.3685 81.3724 80.92 79.5338 80.9154 77.1685C80.9108 74.8032 82.3581 72.9986 84.4903 72.837C85.6392 72.75 86.796 72.8213 87.9488 72.82C89.1016 72.8187 90.2584 72.7546 91.4079 72.8337C93.5016 72.9836 95.0293 74.8451 95.0339 77.1475C95.0384 79.45 93.5127 81.373 91.4249 81.4699V81.4725Z" fill="white"/>
<defs>
<filter id="filter0_d_601_457" x="0" y="0" width="139" height="139" filterUnits="userSpaceOnUse" color-interpolation-filters="sRGB">
<feFlood flood-opacity="0" result="BackgroundImageFix"/>
<feColorMatrix in="SourceAlpha" type="matrix" values="0 0 0 0 0 0 0 0 0 0 0 0 0 0 0 0 0 0 127 0" result="hardAlpha"/>
<feOffset dy="4"/>
<feGaussianBlur stdDeviation="3.5"/>
<feComposite in2="hardAlpha" operator="out"/>
<feColorMatrix type="matrix" values="0 0 0 0 0 0 0 0 0 0 0 0 0 0 0 0 0 0 0.25 0"/>
<feBlend mode="normal" in2="BackgroundImageFix" result="effect1_dropShadow_601_457"/>
<feBlend mode="normal" in="SourceGraphic" in2="effect1_dropShadow_601_457" result="shape"/>
</filter>
</defs>
</svg>
